HIERARCHY
ROOT Hips
{
 OFFSET 0.000000 0.000000 0.000000
 CHANNELS 6 Xposition Yposition Zposition Yrotation Xrotation Zrotation
 JOINT Chest
 {
  OFFSET 0.000000 10.080317 -0.001081
  CHANNELS 3 Yrotation Xrotation Zrotation
  JOINT Chest2
  {
   OFFSET 0.000000 11.096852 0.001963
   CHANNELS 3 Yrotation Xrotation Zrotation
   JOINT Chest3
   {
    OFFSET 0.000000 10.026525 0.000000
    CHANNELS 3 Yrotation Xrotation Zrotation
    JOINT Chest4
    {
     OFFSET 0.000000 10.026525 0.000000
     CHANNELS 3 Yrotation Xrotation Zrotation
     JOINT Neck
     {
      OFFSET 0.000000 14.108171 0.000000
      CHANNELS 3 Yrotation Xrotation Zrotation
      JOINT Head
      {
       OFFSET 0.000000 9.333493 0.004668
       CHANNELS 3 Yrotation Xrotation Zrotation
       End Site
       {
        OFFSET 0.000000 17.851786 0.002438
       }
      }
     }
     JOINT RightCollar
     {
      OFFSET -3.071622 7.873185 0.000000
      CHANNELS 3 Yrotation Xrotation Zrotation
      JOINT RightShoulder
      {
       OFFSET -14.378659 0.000000 0.000000
       CHANNELS 3 Yrotation Xrotation Zrotation
       JOINT RightElbow
       {
        OFFSET -30.778728 0.000000 0.000000
        CHANNELS 3 Yrotation Xrotation Zrotation
        JOINT RightWrist
        {
         OFFSET -25.164217 0.000000 0.000000
         CHANNELS 3 Yrotation Xrotation Zrotation
         End Site
         {
          OFFSET -18.796788 0.000000 0.000000
         }
        }
       }
      }
     }
     JOINT LeftCollar
     {
      OFFSET 3.071622 7.873185 0.000000
      CHANNELS 3 Yrotation Xrotation Zrotation
      JOINT LeftShoulder
      {
       OFFSET 14.378659 0.000000 0.000000
       CHANNELS 3 Yrotation Xrotation Zrotation
       JOINT LeftElbow
       {
        OFFSET 30.778728 0.000000 0.000000
        CHANNELS 3 Yrotation Xrotation Zrotation
        JOINT LeftWrist
        {
         OFFSET 25.164217 0.000000 0.000000
         CHANNELS 3 Yrotation Xrotation Zrotation
         End Site
         {
          OFFSET 18.796788 0.000000 0.000000
         }
        }
       }
      }
     }
    }
   }
  }
 }
 JOINT RightHip
 {
  OFFSET -8.194923 0.005295 0.000540
  CHANNELS 3 Yrotation Xrotation Zrotation
  JOINT RightKnee
  {
   OFFSET 0.000000 -42.473320 -0.000511
   CHANNELS 3 Yrotation Xrotation Zrotation
   JOINT RightAnkle
   {
    OFFSET 0.000000 -41.474259 -0.000865
    CHANNELS 3 Yrotation Xrotation Zrotation
    JOINT RightToe
    {
     OFFSET 0.000000 -7.354994 16.712725
     CHANNELS 3 Yrotation Xrotation Zrotation
     End Site
     {
      OFFSET 0.000000 -1.553903 6.764158
     }
    }
   }
  }
 }
 JOINT LeftHip
 {
  OFFSET 8.194923 0.005295 0.000540
  CHANNELS 3 Yrotation Xrotation Zrotation
  JOINT LeftKnee
  {
   OFFSET 0.000000 -42.473320 -0.000511
   CHANNELS 3 Yrotation Xrotation Zrotation
   JOINT LeftAnkle
   {
    OFFSET 0.000000 -41.474259 -0.000865
    CHANNELS 3 Yrotation Xrotation Zrotation
    JOINT LeftToe
    {
     OFFSET 0.000000 -7.354994 16.712725
     CHANNELS 3 Yrotation Xrotation Zrotation
     End Site
     {
      OFFSET 0.000000 -1.553903 6.764158
     }
    }
   }
  }
 }
}
MOTION
Frames: 12
Frame Time: 0.016667
-16.489507 85.556223 122.807947 49.853896 -5.380655 9.166478 1.988599 1.121351 5.188222 0.498018 0.588326 2.030926 0.498018 0.588326 2.030926 0.371560 0.442905 1.522703 -8.934352 16.720567 -0.715410 -16.303488 -4.742157 1.788098 16.375979 -14.885741 4.597162 -6.834197 -52.922269 19.483263 96.764351 -37.665279 6.445450 1.403574 -6.402260 4.450643 -9.779778 -16.634631 -5.546973 -25.557476 -51.895291 -59.497333 -104.287901 -22.257558 -44.125424 6.450053 12.982458 9.793246 -11.369142 -27.784201 -17.281795 -9.547356 45.238640 -14.693648 -7.151720 -11.957426 13.684502 0.692729 -0.277664 0.222012 0.983289 1.798959 2.055988 -11.740488 37.205480 -19.779847 2.486312 -28.251790 1.697497 -0.282392 -3.332368 1.023976
-16.566182 85.709651 123.047971 48.382958 -5.476004 9.029563 1.811931 1.431166 5.121354 0.301424 0.679000 1.959919 0.301424 0.679000 1.959919 0.223890 0.510223 1.469588 -8.733248 16.892743 -0.572766 -15.966969 -4.425059 1.961944 16.289639 -14.900021 4.511655 -5.480084 -52.126400 19.256717 98.574192 -32.934258 5.732790 1.726881 -4.199301 1.400335 -10.016494 -16.698012 -5.397472 -25.421113 -51.987935 -59.784561 -104.365571 -22.006751 -43.972441 6.634239 12.992125 9.674363 -10.406432 -27.213222 -16.743896 -8.785766 44.789160 -14.113252 -7.473741 -11.889147 13.366715 0.758355 -0.196160 0.248102 1.016459 2.649525 2.125967 -10.684241 36.478380 -19.364425 3.362925 -27.970542 1.242514 -0.465724 -3.609062 1.025782
-16.648544 85.869042 123.291124 46.907848 -5.518447 8.828826 1.552882 1.711137 4.986857 0.134904 0.755706 1.886369 0.134904 0.755706 1.886369 0.098845 0.567202 1.414590 -8.520051 17.083302 -0.418208 -15.610885 -4.073701 2.152042 16.114516 -15.107707 4.337540 -3.917070 -51.164004 19.049992 100.005447 -28.509532 5.154298 2.120662 -2.396249 -1.450807 -10.362093 -16.843924 -5.238697 -25.513760 -52.119950 -59.817949 -104.459375 -21.836099 -43.797148 6.819132 13.007629 9.488779 -9.746892 -26.701607 -16.068811 -7.836486 44.228878 -13.405918 -7.731315 -11.878460 12.945825 0.869683 -0.038612 0.273738 0.888527 3.566609 2.168769 -9.485222 35.548171 -18.857142 4.266399 -27.766890 0.839821 -0.669202 -3.761633 0.962387
-16.698074 86.041727 123.587253 45.232259 -5.636171 8.542115 1.337552 2.097560 4.886082 -0.032457 0.818265 1.825472 -0.032457 0.818265 1.825472 -0.026787 0.613608 1.369124 -8.294899 17.250737 -0.230540 -15.246002 -3.762134 2.402437 16.095957 -15.343607 4.050037 -2.239693 -50.165731 18.797785 101.289577 -23.819043 4.692834 2.478307 -0.358022 -4.336737 -10.580795 -17.078953 -5.094064 -25.671871 -52.294008 -59.802730 -104.595920 -21.704660 -43.613707 6.974392 13.045916 9.287681 -9.294057 -26.092455 -15.237535 -6.720056 43.583924 -12.662723 -7.800528 -11.899238 12.491167 0.977272 0.124378 0.274220 1.175135 4.770973 2.229121 -8.285371 34.369309 -18.149080 5.200238 -27.578528 0.538617 -0.961751 -3.822833 0.739488
-16.744509 86.223910 123.885548 43.546788 -5.631185 8.235236 1.051168 2.357699 4.712084 -0.198849 0.867003 1.764010 -0.198849 0.867003 1.764010 -0.151638 0.649685 1.323265 -8.020478 17.424151 0.004381 -14.805761 -3.438556 2.723246 16.157769 -15.590700 3.701799 -0.562776 -49.198491 18.579263 102.362328 -18.429377 4.221213 2.778924 1.521103 -6.840823 -10.741797 -17.324915 -5.041955 -26.022595 -52.453724 -59.559588 -104.781009 -21.584403 -43.400510 7.099734 13.123342 9.119571 -8.953958 -25.641599 -14.370019 -5.655964 42.890763 -11.949217 -7.729761 -11.823293 12.003657 1.129700 0.230407 0.270266 1.708180 5.989645 2.272113 -7.002861 32.994743 -17.285468 5.915217 -27.429415 0.407686 -1.204585 -3.740490 0.382030
-16.782820 86.413229 124.191317 41.782694 -5.567051 7.881978 0.805666 2.563556 4.496463 -0.359852 0.908602 1.698378 -0.359852 0.908602 1.698378 -0.272411 0.680458 1.274292 -7.693619 17.603448 0.323826 -14.296696 -3.099109 3.182043 16.242841 -15.823218 3.391575 1.068145 -48.332577 18.431887 103.060654 -13.306621 3.980504 3.090504 3.092937 -8.793421 -10.909555 -17.585615 -4.952388 -26.288763 -52.616696 -59.311981 -104.927126 -21.565551 -43.220640 7.229593 13.180104 8.985535 -8.392478 -25.209723 -13.519712 -4.750017 42.188653 -11.253620 -7.625054 -11.621817 11.526970 1.302272 0.248188 0.271732 2.508123 7.210505 2.314576 -5.644353 31.559764 -16.291461 6.564481 -27.269633 0.383523 -1.487753 -3.622488 -0.123907
-16.828247 86.605726 124.498142 39.876381 -5.482887 7.379922 0.659629 2.728744 4.320424 -0.530567 0.936101 1.638493 -0.530567 0.936101 1.638493 -0.400430 0.700660 1.229656 -7.339701 17.793452 0.688566 -13.751644 -2.737645 3.714614 16.315232 -15.985536 3.076183 2.504913 -47.628520 18.568732 103.394353 -8.849365 3.874329 3.283095 4.312174 -10.084023 -11.024708 -17.727215 -4.909708 -26.540965 -52.718668 -59.023705 -105.009904 -21.646191 -43.075151 7.348029 13.232494 8.929409 -7.679119 -24.741279 -12.539466 -4.047755 41.406688 -10.638298 -7.414516 -11.278104 11.045301 1.473839 0.201185 0.280274 3.487242 8.397953 2.490703 -4.221149 30.140429 -15.229825 7.160314 -27.072011 0.352909 -1.763221 -3.519252 -0.684915
-16.867854 86.801337 124.804122 38.210668 -5.392381 6.796062 0.308678 2.885609 4.146106 -0.705724 0.975722 1.587713 -0.705724 0.975722 1.587713 -0.531819 0.729965 1.191885 -6.982102 17.960084 1.134600 -13.227902 -2.410775 4.398309 16.249145 -16.270975 2.727907 3.765396 -46.873693 19.000076 103.628425 -5.169872 3.918358 3.226178 5.252215 -11.238822 -11.194398 -17.889217 -4.922255 -26.634617 -52.756801 -58.779796 -105.007097 -21.796433 -42.964948 7.439198 13.243317 8.928693 -7.199183 -24.219846 -11.518625 -3.400522 40.507263 -10.044502 -7.151398 -10.937139 10.593987 1.584720 0.202883 0.281660 4.170303 9.485748 2.683246 -2.838018 28.754776 -14.177224 7.702884 -26.874923 0.254431 -1.935405 -2.559281 -1.142080
-16.930826 86.996255 125.091756 36.477679 -5.293321 6.123668 0.021609 2.983922 3.953010 -0.905023 1.007975 1.535783 -0.905023 1.007975 1.535783 -0.681288 0.753714 1.153303 -6.576813 18.161111 1.584308 -12.613926 -2.025747 5.070162 16.118309 -16.456976 2.362665 4.843447 -46.215935 19.820459 103.515502 -2.419828 4.090476 3.318193 5.687664 -12.185486 -11.271003 -17.853463 -4.952579 -26.557945 -52.758403 -58.684612 -105.069817 -21.856607 -42.850831 7.522068 13.280848 9.104129 -6.632304 -23.717446 -10.395865 -2.731289 39.607371 -9.415201 -7.014120 -10.488876 10.056372 1.735310 0.155808 0.350861 4.910790 10.492309 2.946650 -1.593652 27.364519 -13.200552 8.402201 -26.615711 0.110072 -2.178423 -1.815136 -1.513751
-16.997436 87.195269 125.345660 35.084173 -5.234842 5.455367 -0.552627 3.103479 3.708695 -1.107060 1.055134 1.479495 -1.107060 1.055134 1.479495 -0.832832 0.788679 1.111506 -6.163141 18.326491 2.082675 -12.002374 -1.702951 5.832982 15.922412 -16.568999 2.107773 5.826907 -45.663816 20.764980 103.164479 -0.418107 4.281528 3.486770 5.801752 -12.933918 -11.274682 -17.762927 -5.018216 -26.272462 -52.647225 -58.834707 -105.240061 -21.874796 -42.710733 7.604812 13.423083 9.408435 -6.341690 -23.174102 -9.272522 -1.990510 38.667175 -8.842431 -7.047561 -10.045432 9.526565 1.908891 0.143511 0.476855 5.387739 11.404866 3.172410 -0.330100 26.056967 -12.201958 8.868941 -26.314686 -0.028322 -2.401081 -1.232675 -1.782587
-17.085701 87.392996 125.574988 33.604396 -5.190584 4.737717 -0.970913 3.194520 3.438283 -1.293092 1.104999 1.410109 -1.293092 1.104999 1.410109 -0.972345 0.825775 1.059893 -5.760806 18.497674 2.617092 -11.421511 -1.365307 6.665296 15.630042 -16.614083 1.947659 6.400117 -45.107716 22.084139 102.784053 1.486120 4.426985 3.493161 6.092621 -13.384837 -11.302831 -17.472056 -5.083797 -25.925750 -52.405467 -59.114798 -105.329283 -21.866117 -42.610776 7.614546 13.537268 9.839493 -5.860330 -22.626189 -8.070957 -1.236670 37.725146 -8.315927 -7.249754 -9.498130 9.000917 2.082749 0.088699 0.624724 6.164466 12.333500 3.521369 0.951499 24.704291 -11.172778 8.999826 -25.976765 -0.179219 -2.586836 -0.739609 -1.952024
-17.160370 87.588621 125.807516 32.077208 -5.335859 4.008403 -1.238990 3.423707 3.153379 -1.439032 1.155950 1.323530 -1.439032 1.155950 1.323530 -1.081747 0.863857 0.995343 -5.417216 18.690172 3.191636 -10.957471 -0.978274 7.587641 15.087942 -16.510118 1.999706 6.731807 -44.630817 23.645132 102.366499 3.134610 4.592863 3.420705 6.272466 -13.466974 -11.447392 -17.086503 -5.142754 -25.341584 -51.933991 -59.599712 -105.290026 -21.939040 -42.616685 7.540989 13.546275 10.424728 -5.275208 -21.888204 -6.873369 -0.473660 36.789253 -7.843289 -7.515660 -8.935954 8.484077 2.261643 0.016730 0.792415 7.128260 13.478381 3.962639 2.180973 23.233402 -10.196509 9.010022 -25.532804 -0.377670 -2.776627 -0.369854 -2.031849
